<svg xmlns="http://www.w3.org/2000/svg" viewBox="0 0 32 32">
  <style>
    .back { fill: #003a8c; }
    .front { fill: #1890ff; }
    @media (prefers-color-scheme: dark) {
      .back { fill: #002766; }
      .front { fill: #40a9ff; }
    }
  </style>
  <path class="back" transform="translate(1.2 1)" d="M9.21 6.72Q11.52 6.72 12.75 7.76Q13.98 8.81 13.98 10.49Q13.98 10.90 13.91 11.32Q13.64 12.86 12.70 13.82Q11.77 14.79 10.68 15.14V15.23Q11.73 15.60 12.31 16.38Q12.89 17.16 12.89 18.35Q12.89 18.86 12.80 19.33Q12.40 21.52 10.68 22.88Q8.96 24.24 6.35 24.24Q3.86 24.24 2.43 23.14Q1.00 22.05 1.00 19.82Q1.00 19.51 1.09 18.72H4.96Q4.91 19.10 4.91 19.23Q4.91 20.05 5.37 20.49Q5.84 20.93 6.77 20.93Q7.82 20.93 8.45 20.26Q9.07 19.58 9.07 18.54Q9.07 17.68 8.43 17.29Q7.79 16.91 6.42 16.91H5.68L6.26 13.67H7.00Q9.63 13.67 9.98 11.81Q10.03 11.53 10.03 11.39Q10.03 10.74 9.64 10.39Q9.26 10.04 8.54 10.04Q7.65 10.04 7.12 10.58Q6.58 11.11 6.38 11.90H2.51Q3.05 9.42 4.82 8.07Q6.58 6.72 9.21 6.72Z M21.10 10.93Q22.38 10.93 23.34 11.46Q24.31 12.00 24.75 12.91L25.82 6.88H29.80L26.75 24.10H22.77L23.10 22.24Q22.35 23.17 21.24 23.73Q20.12 24.28 18.75 24.28Q17.37 24.28 16.32 23.66Q15.26 23.03 14.66 21.86Q14.07 20.70 14.07 19.14Q14.07 18.42 14.21 17.58Q14.56 15.58 15.58 14.07Q16.61 12.56 18.05 11.74Q19.49 10.93 21.10 10.93ZM24.01 16.84Q24.01 15.70 23.34 15.05Q22.68 14.39 21.66 14.39Q20.47 14.39 19.49 15.24Q18.51 16.09 18.26 17.58Q18.19 18.00 18.19 18.35Q18.19 19.49 18.85 20.15Q19.52 20.82 20.52 20.82Q21.70 20.82 22.68 19.96Q23.66 19.10 23.94 17.61Q24.01 17.19 24.01 16.84Z"/>
  <path class="front" d="M9.21 6.72Q11.52 6.72 12.75 7.76Q13.98 8.81 13.98 10.49Q13.98 10.90 13.91 11.32Q13.64 12.86 12.70 13.82Q11.77 14.79 10.68 15.14V15.23Q11.73 15.60 12.31 16.38Q12.89 17.16 12.89 18.35Q12.89 18.86 12.80 19.33Q12.40 21.52 10.68 22.88Q8.96 24.24 6.35 24.24Q3.86 24.24 2.43 23.14Q1.00 22.05 1.00 19.82Q1.00 19.51 1.09 18.72H4.96Q4.91 19.10 4.91 19.23Q4.91 20.05 5.37 20.49Q5.84 20.93 6.77 20.93Q7.82 20.93 8.45 20.26Q9.07 19.58 9.07 18.54Q9.07 17.68 8.43 17.29Q7.79 16.91 6.42 16.91H5.68L6.26 13.67H7.00Q9.63 13.67 9.98 11.81Q10.03 11.53 10.03 11.39Q10.03 10.74 9.64 10.39Q9.26 10.04 8.54 10.04Q7.65 10.04 7.12 10.58Q6.58 11.11 6.38 11.90H2.51Q3.05 9.42 4.82 8.07Q6.58 6.72 9.21 6.72Z M21.10 10.93Q22.38 10.93 23.34 11.46Q24.31 12.00 24.75 12.91L25.82 6.88H29.80L26.75 24.10H22.77L23.10 22.24Q22.35 23.17 21.24 23.73Q20.12 24.28 18.75 24.28Q17.37 24.28 16.32 23.66Q15.26 23.03 14.66 21.86Q14.07 20.70 14.07 19.14Q14.07 18.42 14.21 17.58Q14.56 15.58 15.58 14.07Q16.61 12.56 18.05 11.74Q19.49 10.93 21.10 10.93ZM24.01 16.84Q24.01 15.70 23.34 15.05Q22.68 14.39 21.66 14.39Q20.47 14.39 19.49 15.24Q18.51 16.09 18.26 17.58Q18.19 18.00 18.19 18.35Q18.19 19.49 18.85 20.15Q19.52 20.82 20.52 20.82Q21.70 20.82 22.68 19.96Q23.66 19.10 23.94 17.61Q24.01 17.19 24.01 16.84Z"/>
</svg>
